<svg xmlns="http://www.w3.org/2000/svg" width="22.361" height="22.361" viewBox="0 0 22.361 22.361"><defs><style>.a,.b{fill:#3ea2ef;}.a{opacity:0.3;}</style></defs><g transform="translate(-2 -2)"><path class="a" d="M23.243,24.125H3.118A1.056,1.056,0,0,1,2,23.007V5.118A1.056,1.056,0,0,1,3.118,4H23.243a1.056,1.056,0,0,1,1.118,1.118V23.007A1.056,1.056,0,0,1,23.243,24.125Z" transform="translate(0 0.236)"/><path class="b" d="M6.118,6.472A1.056,1.056,0,0,1,5,5.354V3.118A1.056,1.056,0,0,1,6.118,2,1.056,1.056,0,0,1,7.236,3.118V5.354A1.056,1.056,0,0,1,6.118,6.472Zm5.59-1.118V3.118A1.056,1.056,0,0,0,10.59,2,1.056,1.056,0,0,0,9.472,3.118V5.354A1.056,1.056,0,0,0,10.59,6.472,1.056,1.056,0,0,0,11.708,5.354Zm4.472,0V3.118a1.118,1.118,0,1,0-2.236,0V5.354a1.118,1.118,0,1,0,2.236,0Zm4.472,0V3.118a1.118,1.118,0,1,0-2.236,0V5.354a1.118,1.118,0,1,0,2.236,0Z" transform="translate(0.354)"/><path class="b" d="M9.119,13.513a1.367,1.367,0,0,0,1.006-.335,1.417,1.417,0,0,0,.447-1.006,1.154,1.154,0,0,0-1.23-1.23,1.418,1.418,0,0,0-.671.112,1.977,1.977,0,0,0-.783.783c-.112.224-.224.335-.224.559,0,.112-.112.112-.224.224s-.224.112-.447.112a.581.581,0,0,1-.447-.224.854.854,0,0,1-.224-.559,1.589,1.589,0,0,1,.224-.671,2.964,2.964,0,0,1,.559-.671,2.162,2.162,0,0,1,1.006-.559,4.806,4.806,0,0,1,1.342-.224,3.309,3.309,0,0,1,1.118.224,6.639,6.639,0,0,1,.894.447,1.426,1.426,0,0,1,.559.783,2.631,2.631,0,0,1,.224.894,1.889,1.889,0,0,1-.335,1.118,3.014,3.014,0,0,1-.783.894,6.2,6.2,0,0,1,.894.671,2.005,2.005,0,0,1,.559.783,2.631,2.631,0,0,1,.224.894,3.308,3.308,0,0,1-.224,1.118,5.25,5.25,0,0,1-.671,1.006,1.9,1.9,0,0,1-1.118.671,5.665,5.665,0,0,1-1.453.224,3.1,3.1,0,0,1-1.453-.335,3.9,3.9,0,0,1-1.006-.671,2.434,2.434,0,0,1-.559-.894,2.844,2.844,0,0,1-.224-.783.764.764,0,0,1,.783-.783.411.411,0,0,1,.335.112c.112.112.224.112.224.224a3.866,3.866,0,0,0,.783,1.342,1.435,1.435,0,0,0,1.118.447,2.073,2.073,0,0,0,.783-.224,2.964,2.964,0,0,0,.671-.559,1.2,1.2,0,0,0,.224-.894,1.527,1.527,0,0,0-.447-1.23,1.435,1.435,0,0,0-1.118-.447H8.672a.776.776,0,0,1-.783-.671c0-.224.112-.335.224-.559s.335-.224.671-.224h.335Zm7.267,4.919V12.507a4.859,4.859,0,0,1-2.236,1.23.581.581,0,0,1-.447-.224.854.854,0,0,1-.224-.559.581.581,0,0,1,.224-.447,3.6,3.6,0,0,1,.783-.447,3.886,3.886,0,0,0,1.23-.783l.894-.894c.335-.335.447-.559.447-.671s.224-.112.447-.112a.854.854,0,0,1,.559.224,1.3,1.3,0,0,1,.224.783V18.1c0,.894-.335,1.342-.894,1.342a1.589,1.589,0,0,1-.671-.224A.87.87,0,0,1,16.386,18.433Z" transform="translate(0.484 0.897)"/></g></svg>